<svg width="1000" height="1000" viewBox="0 0 1000 1000" fill="none" xmlns="http://www.w3.org/2000/svg">
<path d="M287.36 826.376C297.685 826.376 305.749 829.363 311.552 835.336C317.355 841.309 320.256 849.971 320.256 861.32V917H307.584V861.704C307.584 853.853 305.536 847.923 301.44 843.912C297.344 839.816 291.925 837.768 285.184 837.768C277.76 837.768 271.872 839.901 267.52 844.168C263.253 848.349 261.12 854.792 261.12 863.496V917H248.448V861.704C248.448 853.768 246.485 847.795 242.56 843.784C238.72 839.773 233.429 837.768 226.688 837.768C219.179 837.768 213.205 839.901 208.768 844.168C204.416 848.435 202.24 854.877 202.24 863.496V917H189.44V827.4H201.728V840.456C204.373 836.019 208.085 832.563 212.864 830.088C217.728 827.613 223.36 826.376 229.76 826.376C236.416 826.376 242.133 827.699 246.912 830.344C251.776 832.989 255.36 836.659 257.664 841.352C260.48 836.573 264.448 832.904 269.568 830.344C274.773 827.699 280.704 826.376 287.36 826.376ZM408.648 849.16V917H396.872V906.248C394.141 910.003 390.685 912.861 386.504 914.824C382.323 916.787 377.715 917.768 372.68 917.768C366.109 917.768 360.221 916.317 355.016 913.416C349.811 910.515 345.715 906.461 342.728 901.256C339.827 895.965 338.376 889.907 338.376 883.08C338.376 876.253 339.827 870.237 342.728 865.032C345.715 859.827 349.811 855.773 355.016 852.872C360.221 849.971 366.109 848.52 372.68 848.52C377.544 848.52 382.024 849.459 386.12 851.336C390.216 853.128 393.629 855.816 396.36 859.4V849.16H408.648ZM373.704 907.016C377.971 907.016 381.853 906.035 385.352 904.072C388.851 902.024 391.581 899.208 393.544 895.624C395.507 891.955 396.488 887.773 396.488 883.08C396.488 878.387 395.507 874.248 393.544 870.664C391.581 866.995 388.851 864.179 385.352 862.216C381.853 860.253 377.971 859.272 373.704 859.272C369.352 859.272 365.427 860.253 361.928 862.216C358.515 864.179 355.784 866.995 353.736 870.664C351.773 874.248 350.792 878.387 350.792 883.08C350.792 887.773 351.773 891.955 353.736 895.624C355.784 899.208 358.515 902.024 361.928 904.072C365.427 906.035 369.352 907.016 373.704 907.016ZM451.354 917.768C445.807 917.768 440.474 917.043 435.354 915.592C430.234 914.056 426.223 912.136 423.322 909.832L428.442 900.104C431.429 902.237 435.055 903.944 439.322 905.224C443.589 906.504 447.898 907.144 452.25 907.144C463.002 907.144 468.378 904.072 468.378 897.928C468.378 895.88 467.653 894.259 466.202 893.064C464.751 891.869 462.917 891.016 460.698 890.504C458.565 889.907 455.493 889.267 451.482 888.584C446.021 887.731 441.541 886.749 438.042 885.64C434.629 884.531 431.685 882.653 429.21 880.008C426.735 877.363 425.498 873.651 425.498 868.872C425.498 862.728 428.058 857.821 433.178 854.152C438.298 850.397 445.167 848.52 453.786 848.52C458.309 848.52 462.831 849.075 467.354 850.184C471.877 851.293 475.589 852.787 478.49 854.664L473.242 864.392C467.695 860.808 461.167 859.016 453.658 859.016C448.453 859.016 444.485 859.869 441.754 861.576C439.023 863.283 437.658 865.544 437.658 868.36C437.658 870.579 438.426 872.328 439.962 873.608C441.498 874.888 443.375 875.827 445.594 876.424C447.898 877.021 451.098 877.704 455.194 878.472C460.655 879.411 465.05 880.435 468.378 881.544C471.791 882.568 474.693 884.36 477.082 886.92C479.471 889.48 480.666 893.064 480.666 897.672C480.666 903.816 478.021 908.723 472.73 912.392C467.525 915.976 460.399 917.768 451.354 917.768ZM487.319 942.6C484.332 942.6 481.559 942.259 478.999 941.576C476.439 940.893 474.306 939.869 472.599 938.504L476.567 929.032C479.127 931.165 482.455 932.232 486.551 932.232C489.794 932.232 492.268 931.208 493.975 929.16C495.767 927.197 496.663 924.253 496.663 920.328V849.16H508.951V920.072C508.951 927.069 507.074 932.573 503.319 936.584C499.564 940.595 494.231 942.6 487.319 942.6ZM502.807 836.104C500.418 836.104 498.412 835.336 496.791 833.8C495.255 832.264 494.487 830.387 494.487 828.168C494.487 825.949 495.255 824.072 496.791 822.536C498.412 820.915 500.418 820.104 502.807 820.104C505.196 820.104 507.159 820.872 508.695 822.408C510.316 823.859 511.127 825.693 511.127 827.912C511.127 830.216 510.316 832.179 508.695 833.8C507.159 835.336 505.196 836.104 502.807 836.104ZM532.398 849.16H544.686V917H532.398V849.16ZM538.542 836.104C536.153 836.104 534.147 835.336 532.526 833.8C530.99 832.264 530.222 830.387 530.222 828.168C530.222 825.949 530.99 824.072 532.526 822.536C534.147 820.915 536.153 820.104 538.542 820.104C540.931 820.104 542.894 820.872 544.43 822.408C546.051 823.859 546.862 825.693 546.862 827.912C546.862 830.216 546.051 832.179 544.43 833.8C542.894 835.336 540.931 836.104 538.542 836.104ZM632.148 822.024V917H620.372V906.248C617.641 910.003 614.185 912.861 610.004 914.824C605.823 916.787 601.215 917.768 596.18 917.768C589.609 917.768 583.721 916.317 578.516 913.416C573.311 910.515 569.215 906.461 566.228 901.256C563.327 895.965 561.876 889.907 561.876 883.08C561.876 876.253 563.327 870.237 566.228 865.032C569.215 859.827 573.311 855.773 578.516 852.872C583.721 849.971 589.609 848.52 596.18 848.52C601.044 848.52 605.524 849.459 609.62 851.336C613.716 853.128 617.129 855.816 619.86 859.4V822.024H632.148ZM597.204 907.016C601.471 907.016 605.353 906.035 608.852 904.072C612.351 902.024 615.081 899.208 617.044 895.624C619.007 891.955 619.988 887.773 619.988 883.08C619.988 878.387 619.007 874.248 617.044 870.664C615.081 866.995 612.351 864.179 608.852 862.216C605.353 860.253 601.471 859.272 597.204 859.272C592.852 859.272 588.927 860.253 585.428 862.216C582.015 864.179 579.284 866.995 577.236 870.664C575.273 874.248 574.292 878.387 574.292 883.08C574.292 887.773 575.273 891.955 577.236 895.624C579.284 899.208 582.015 902.024 585.428 904.072C588.927 906.035 592.852 907.016 597.204 907.016ZM719.654 852.488C711.974 848.051 703.739 845.192 694.95 843.912V917H674.214V843.912C665.425 845.192 657.147 848.051 649.382 852.488L642.342 837C648.486 833.331 655.142 830.557 662.31 828.68C669.478 826.803 676.859 825.864 684.454 825.864C692.134 825.864 699.558 826.803 706.726 828.68C713.979 830.557 720.635 833.331 726.694 837L719.654 852.488ZM823.893 827.4L785.109 917H764.629L725.973 827.4H748.373L775.637 891.4L803.285 827.4H823.893Z" fill="#408152"/>
<path d="M716.728 63.7363C722.972 57.4845 733.098 57.4845 739.343 63.7363C745.587 69.9881 745.587 80.1242 739.343 86.376L615.292 210.564H799.17C834.516 210.564 863.17 239.218 863.17 274.564V702.123C863.17 737.469 834.516 766.123 799.17 766.123H200.829C165.483 766.123 136.829 737.469 136.829 702.123V274.564C136.829 239.218 165.483 210.565 200.829 210.564H384.318L260.269 86.376C254.024 80.1241 254.024 69.9882 260.269 63.7363C266.513 57.4846 276.638 57.4846 282.883 63.7363L429.549 210.564H570.062L716.728 63.7363ZM500.595 591.963C457.765 601.968 438.73 637.421 434.566 653.897V749.179H561.865V653.897C557.582 616.26 519.234 596.925 500.595 591.963ZM200.829 246.564C185.365 246.565 172.829 259.101 172.829 274.564V702.123L172.838 702.846C173.215 717.735 185.217 729.736 200.106 730.113L200.829 730.123H295.37V592.435C295.37 586.912 299.847 582.435 305.37 582.435H329.881C331.042 422.372 449.392 442.473 491.902 381.511C470.762 377.441 454.791 358.832 454.791 336.486C454.791 311.162 475.303 290.632 500.605 290.632C502.984 290.632 505.321 290.813 507.602 291.163C491.229 294.048 478.789 308.354 478.789 325.568C478.789 344.863 494.417 360.505 513.694 360.506C528.672 360.506 541.445 351.062 546.398 337.8C545.774 360.022 529.355 378.284 507.979 381.746C545.364 442.225 668.299 424.828 669.523 582.435H695.82C701.343 582.435 705.82 586.912 705.82 592.435V730.123H799.17L799.893 730.113C814.782 729.736 826.784 717.735 827.161 702.846L827.17 702.123V274.564C827.17 259.342 815.023 246.957 799.893 246.573L799.17 246.564H200.829Z" fill="#408152"/>
</svg>
