<svg width="1082" height="205" viewBox="0 0 1082 205" fill="none" xmlns="http://www.w3.org/2000/svg">
<g clip-path="url(#clip0_2003_25)">
<path d="M357.001 42.64C370.714 42.64 381.424 46.6067 389.131 54.54C396.837 62.4733 400.691 73.9767 400.691 89.05V163H383.861V89.56C383.861 79.1333 381.141 71.2567 375.701 65.93C370.261 60.49 363.064 57.77 354.111 57.77C344.251 57.77 336.431 60.6033 330.651 66.27C324.984 71.8233 322.151 80.38 322.151 91.94V163H305.321V89.56C305.321 79.02 302.714 71.0867 297.501 65.76C292.401 60.4333 285.374 57.77 276.421 57.77C266.447 57.77 258.514 60.6033 252.621 66.27C246.841 71.9367 243.951 80.4933 243.951 91.94V163H226.951V44H243.271V61.34C246.784 55.4467 251.714 50.8567 258.061 47.57C264.521 44.2833 272.001 42.64 280.501 42.64C289.341 42.64 296.934 44.3967 303.281 47.91C309.741 51.4233 314.501 56.2967 317.561 62.53C321.301 56.1833 326.571 51.31 333.371 47.91C340.284 44.3967 348.161 42.64 357.001 42.64ZM518.086 72.9V163H502.446V148.72C498.82 153.707 494.23 157.503 488.676 160.11C483.123 162.717 477.003 164.02 470.316 164.02C461.59 164.02 453.77 162.093 446.856 158.24C439.943 154.387 434.503 149.003 430.536 142.09C426.683 135.063 424.756 127.017 424.756 117.95C424.756 108.883 426.683 100.893 430.536 93.98C434.503 87.0667 439.943 81.6833 446.856 77.83C453.77 73.9767 461.59 72.05 470.316 72.05C476.776 72.05 482.726 73.2967 488.166 75.79C493.606 78.17 498.14 81.74 501.766 86.5V72.9H518.086ZM471.676 149.74C477.343 149.74 482.5 148.437 487.146 145.83C491.793 143.11 495.42 139.37 498.026 134.61C500.633 129.737 501.936 124.183 501.936 117.95C501.936 111.717 500.633 106.22 498.026 101.46C495.42 96.5867 491.793 92.8467 487.146 90.24C482.5 87.6333 477.343 86.33 471.676 86.33C465.896 86.33 460.683 87.6333 456.036 90.24C451.503 92.8467 447.876 96.5867 445.156 101.46C442.55 106.22 441.246 111.717 441.246 117.95C441.246 124.183 442.55 129.737 445.156 134.61C447.876 139.37 451.503 143.11 456.036 145.83C460.683 148.437 465.896 149.74 471.676 149.74ZM574.805 164.02C567.438 164.02 560.355 163.057 553.555 161.13C546.755 159.09 541.428 156.54 537.575 153.48L544.375 140.56C548.342 143.393 553.158 145.66 558.825 147.36C564.492 149.06 570.215 149.91 575.995 149.91C590.275 149.91 597.415 145.83 597.415 137.67C597.415 134.95 596.452 132.797 594.525 131.21C592.598 129.623 590.162 128.49 587.215 127.81C584.382 127.017 580.302 126.167 574.975 125.26C567.722 124.127 561.772 122.823 557.125 121.35C552.592 119.877 548.682 117.383 545.395 113.87C542.108 110.357 540.465 105.427 540.465 99.08C540.465 90.92 543.865 84.4033 550.665 79.53C557.465 74.5433 566.588 72.05 578.035 72.05C584.042 72.05 590.048 72.7867 596.055 74.26C602.062 75.7333 606.992 77.7167 610.845 80.21L603.875 93.13C596.508 88.37 587.838 85.99 577.865 85.99C570.952 85.99 565.682 87.1233 562.055 89.39C558.428 91.6567 556.615 94.66 556.615 98.4C556.615 101.347 557.635 103.67 559.675 105.37C561.715 107.07 564.208 108.317 567.155 109.11C570.215 109.903 574.465 110.81 579.905 111.83C587.158 113.077 592.995 114.437 597.415 115.91C601.948 117.27 605.802 119.65 608.975 123.05C612.148 126.45 613.735 131.21 613.735 137.33C613.735 145.49 610.222 152.007 603.195 156.88C596.282 161.64 586.818 164.02 574.805 164.02ZM622.571 197C618.604 197 614.921 196.547 611.521 195.64C608.121 194.733 605.288 193.373 603.021 191.56L608.291 178.98C611.691 181.813 616.111 183.23 621.551 183.23C625.858 183.23 629.144 181.87 631.411 179.15C633.791 176.543 634.981 172.633 634.981 167.42V72.9H651.301V167.08C651.301 176.373 648.808 183.683 643.821 189.01C638.834 194.337 631.751 197 622.571 197ZM643.141 55.56C639.968 55.56 637.304 54.54 635.151 52.5C633.111 50.46 632.091 47.9667 632.091 45.02C632.091 42.0733 633.111 39.58 635.151 37.54C637.304 35.3867 639.968 34.31 643.141 34.31C646.314 34.31 648.921 35.33 650.961 37.37C653.114 39.2967 654.191 41.7333 654.191 44.68C654.191 47.74 653.114 50.3467 650.961 52.5C648.921 54.54 646.314 55.56 643.141 55.56ZM682.442 72.9H698.762V163H682.442V72.9ZM690.602 55.56C687.428 55.56 684.765 54.54 682.612 52.5C680.572 50.46 679.552 47.9667 679.552 45.02C679.552 42.0733 680.572 39.58 682.612 37.54C684.765 35.3867 687.428 34.31 690.602 34.31C693.775 34.31 696.382 35.33 698.422 37.37C700.575 39.2967 701.652 41.7333 701.652 44.68C701.652 47.74 700.575 50.3467 698.422 52.5C696.382 54.54 693.775 55.56 690.602 55.56ZM814.922 36.86V163H799.282V148.72C795.655 153.707 791.065 157.503 785.512 160.11C779.959 162.717 773.839 164.02 767.152 164.02C758.425 164.02 750.605 162.093 743.692 158.24C736.779 154.387 731.339 149.003 727.372 142.09C723.519 135.063 721.592 127.017 721.592 117.95C721.592 108.883 723.519 100.893 727.372 93.98C731.339 87.0667 736.779 81.6833 743.692 77.83C750.605 73.9767 758.425 72.05 767.152 72.05C773.612 72.05 779.562 73.2967 785.002 75.79C790.442 78.17 794.975 81.74 798.602 86.5V36.86H814.922ZM768.512 149.74C774.179 149.74 779.335 148.437 783.982 145.83C788.629 143.11 792.255 139.37 794.862 134.61C797.469 129.737 798.772 124.183 798.772 117.95C798.772 111.717 797.469 106.22 794.862 101.46C792.255 96.5867 788.629 92.8467 783.982 90.24C779.335 87.6333 774.179 86.33 768.512 86.33C762.732 86.33 757.519 87.6333 752.872 90.24C748.339 92.8467 744.712 96.5867 741.992 101.46C739.385 106.22 738.082 111.717 738.082 117.95C738.082 124.183 739.385 129.737 741.992 134.61C744.712 139.37 748.339 143.11 752.872 145.83C757.519 148.437 762.732 149.74 768.512 149.74ZM931.141 77.32C920.941 71.4267 910.004 67.63 898.331 65.93V163H870.791V65.93C859.118 67.63 848.124 71.4267 837.811 77.32L828.461 56.75C836.621 51.8767 845.461 48.1933 854.981 45.7C864.501 43.2067 874.304 41.96 884.391 41.96C894.591 41.96 904.451 43.2067 913.971 45.7C923.604 48.1933 932.444 51.8767 940.491 56.75L931.141 77.32ZM1069.58 44L1018.07 163H990.873L939.533 44H969.283L1005.49 129L1042.21 44H1069.58Z" fill="black"/>
<path fill-rule="evenodd" clip-rule="evenodd" d="M170.096 36C179.984 36 188 43.9727 188 53.8075V151.192C188 161.027 179.984 169 170.096 169H31.9035C22.0157 169 14.0001 161.027 14 151.192V53.8075C14 43.9727 22.0157 36 31.9035 36H170.096ZM101.14 126.707C91.0692 129.044 86.5933 137.326 85.6142 141.175V163.435H115.547V141.175C114.54 132.383 105.523 127.866 101.14 126.707ZM31.7014 46.0192C27.4689 46.1258 24.0707 49.572 24.0707 53.8075V151.192C24.0708 155.495 27.5776 158.983 31.9035 158.983H52.8842V127.263C52.8843 125.727 54.1367 124.481 55.6817 124.481H60.999C61.272 87.088 89.0999 91.7838 99.0956 77.5421C94.125 76.5913 90.3698 72.2441 90.3698 67.0238C90.3698 61.1076 95.1929 56.3114 101.142 56.3114C101.702 56.3114 102.251 56.3536 102.787 56.4353C98.9375 57.1094 96.0125 60.4516 96.0124 64.4731C96.0125 68.9807 99.6872 72.6351 104.22 72.6351C107.742 72.6351 110.745 70.4287 111.91 67.3303C111.763 72.5218 107.902 76.7882 102.876 77.597C111.667 91.726 140.573 87.6616 140.861 124.481H146.598C148.143 124.481 149.395 125.727 149.396 127.263V158.983H170.096C174.422 158.983 177.929 155.495 177.929 151.192V53.8075C177.929 49.572 174.531 46.1258 170.299 46.0192L170.096 46.0167H31.9035L31.7014 46.0192Z" fill="black"/>
</g>
<defs>
<clipPath id="clip0_2003_25">
<rect width="1082" height="205" fill="white"/>
</clipPath>
</defs>
</svg>
